<?xml version="1.0" encoding="utf-8"?>
<!-- Generator: Adobe Illustrator 21.1.0, SVG Export Plug-In . SVG Version: 6.00 Build 0)  -->
<svg version="1.1" id="Layer_1" xmlns="http://www.w3.org/2000/svg" xmlns:xlink="http://www.w3.org/1999/xlink" x="0px" y="0px"
	 viewBox="0 0 90 35" style="enable-background:new 0 0 90 35;" xml:space="preserve">
<style type="text/css">
	.st0{fill:#1875F0;}
</style>
<g transform="translate(-50.000000,-70.000000) scale(0.35,0.35)">
	<path class="st0" d="M384.5,228.9c-0.1-0.1-0.2-0.2-0.2-0.3c-0.1-0.2-0.1-0.4,0-0.7s0.2-0.5,0.1-0.8c0-0.5-0.2-0.9-0.4-1.3
		c-0.2-0.4-0.4-0.7-0.6-1c0-0.1-0.1-0.4-0.3-0.8c-0.1-0.1-0.2-0.1-0.2,0s-0.1,0.1-0.2,0s-0.2-0.2-0.4-0.4c-0.2-0.1-0.3-0.3-0.2-0.5
		c-0.1,0-0.3-0.1-0.4-0.3c-0.2-0.2-0.3-0.3-0.4-0.5c-0.5,0.2-1,0.2-1.4,0s-0.8-0.4-1.3-0.5c0-0.1,0-0.2,0.1-0.2s0-0.1-0.1-0.2
		c-0.3,0.1-0.6,0.2-1.1,0.2c-0.1-0.1-0.1-0.1-0.2-0.2c-0.1-0.1-0.2-0.2-0.3-0.2c-1.6,0.4-3,1.1-4,2.2c-1,1-2.2,2.1-3.4,3.1
		c-0.3,0.4-0.6,0.8-0.9,1.2s-0.7,0.8-1.1,1.1c-0.4,0.2-0.7,0.5-1.1,0.9c-0.3,0.4-0.7,0.6-1.2,0.8c-0.3,0.4-0.7,0.8-1.1,1.1
		s-0.8,0.6-1.1,0.9c0,0.2,0,0.3-0.1,0.4c-0.1,0.1-0.1,0.2-0.1,0.3c-1.4,1.1-2.6,2.3-3.5,3.6s-2,2.6-3.3,3.9
		c-0.2-0.6-0.3-1.1-0.3-1.7c0-0.5,0-1.1,0.1-1.6c0-0.1-0.1-0.2-0.2-0.3c0.2-0.5,0.1-1.1-0.1-1.8c-0.2-0.6-0.4-1.3-0.6-1.9
		c-0.9-0.5-1.7-1.2-2.4-1.9c-0.7-0.7-1.7-1.2-3.1-1.2c-0.2-0.3-0.4-0.4-0.8-0.4s-0.7,0-1,0c-0.1,0.1-0.2,0.2-0.3,0.3
		c-0.1,0.1-0.2,0.2-0.3,0.3c-0.3,0-0.7,0.2-1,0.4s-0.7,0.4-1.1,0.6c-0.3,0.2-0.7,0.3-1.1,0.4c-0.4,0.1-0.7,0.3-1,0.5
		c-0.1,0.1-0.2,0.2-0.3,0.3c-0.1,0.1-0.2,0.3-0.3,0.3c-0.5,0.4-0.9,0.8-1.3,1.2s-0.8,0.8-1.3,1.2c-0.7,0.7-1.4,1.4-2.1,2.1
		c-0.7,0.8-1.4,1.5-2,2.3c-0.1,0.1-0.3,0.3-0.4,0.4c-0.2,0.1-0.3,0.3-0.4,0.5c-0.2,0.3-0.4,0.6-0.6,0.9c-0.1,0.3-0.4,0.6-0.7,0.9
		c-0.2,0.2-0.3,0.3-0.4,0.4c-0.1,0.1-0.2,0.3-0.3,0.5c-0.1,0.1-0.2,0.3-0.5,0.4c-0.1,0.1-0.1,0.3-0.1,0.4c0,0.1-0.1,0.3-0.2,0.4
		c-0.1,0.1-0.1,0.1-0.2,0.1s-0.2,0.1-0.2,0.2c-0.4,0.5-0.7,1-1,1.5s-0.6,1-1,1.4c-0.2-0.1-0.4,0-0.4,0.2c0,0.1-0.1,0.2-0.1,0.3
		c0-0.2,0-0.4,0-0.6c0-0.2,0.1-0.5,0-0.8c-0.2-1.7-0.7-3.2-1.8-4.6c-1-1.3-2.2-2.5-3.6-3.5c-1.2-0.7-2.2-1.3-2.9-1.8
		c-0.7-0.5-1.4-1-2-1.5s-0.9-0.9-1-1.2c-0.1,0.1-0.2,0.1-0.4,0.1c-0.7,0.1-1.1-0.1-1.3-0.6c0,0.1-0.1,0.1-0.3,0.1
		c-0.3-0.2-0.8-0.5-1.5-0.8s-1.2-0.4-1.3-0.4l-0.7,0.1c-0.3,0-0.8-0.1-1.7-0.4c-0.9-0.3-1.5-0.6-1.9-0.9c-0.1,0-0.2,0.1-0.1,0.2
		c0.1,0.1,0,0.2-0.1,0.2h-0.1c-0.8-0.5-1.7-0.8-2.9-1.1c-1.1-0.3-2.2-0.4-3.2-0.3c-0.2-0.3-0.3-0.4-0.3-0.4c-1,0.6-2.1,1-3.3,1.2
		c-1.2,0.2-2.1,0.9-2.7,1.9h-0.2c-0.3,0-0.5,0.1-0.6,0.3s-0.1,0.4-0.2,0.8c0.1,0.1,0.2,0.1,0.3,0.1c0.1,0,0.2,0.1,0.2,0.2
		c-0.5,0.6-0.9,1.5-1.4,2.8c-0.4,1.3-1.1,2.3-2,3.1c-0.6,1.2-1.3,2.3-2.1,3.3c-0.8,1-1.5,2.2-2.2,3.4c-0.1,0-0.2,0.1-0.4,0.4
		c-0.2,0.3-0.4,0.6-0.6,0.9c-0.1,0.2-0.2,0.3-0.3,0.5c-0.3-0.8-0.7-1.5-1.2-2.2c-1-1.3-2.2-2.5-3.6-3.5c-1.2-0.7-2.2-1.3-2.9-1.8
		c-0.7-0.5-1.4-1-2-1.5s-0.9-0.9-1-1.2c-0.1,0.1-0.2,0.1-0.4,0.1c-0.7,0.1-1.1-0.1-1.3-0.6c0,0.1-0.1,0.1-0.3,0.1
		c-0.3-0.2-0.8-0.5-1.5-0.8s-1.2-0.4-1.3-0.4l-0.7,0.1c-0.3,0-0.8-0.1-1.7-0.4c-0.9-0.3-1.5-0.6-1.9-0.9c-0.1,0-0.2,0.1-0.1,0.2
		c0.1,0.1,0,0.2-0.1,0.2h-0.1c-0.8-0.5-1.7-0.8-2.9-1.1c-1.1-0.3-2.2-0.4-3.2-0.3c-0.2-0.3-0.3-0.4-0.3-0.4c-1,0.6-2.1,1-3.3,1.2
		c-1.2,0.2-2.1,0.9-2.7,1.9h-0.2c-0.3,0-0.5,0.1-0.6,0.3s-0.1,0.4-0.2,0.8c0.1,0.1,0.2,0.1,0.3,0.1s0.2,0.1,0.2,0.2
		c-0.5,0.6-0.9,1.5-1.4,2.8c-0.4,1.3-1.1,2.3-2,3.1c-0.6,1.2-1.3,2.3-2.1,3.3s-1.5,2.2-2.2,3.4c-0.1,0-0.2,0.1-0.4,0.4
		c-0.2,0.3-0.4,0.6-0.6,0.9c0,0.1-0.1,0.2-0.2,0.2c0.1-0.6,0.3-1.3,0.4-2c0.4-1.8,1.1-3.6,2.1-5.6c0.1,0.1,0.2,0.2,0.4,0.3
		c-0.1-0.1-0.1-0.2,0.1-0.3c0.2-0.1,0.2-0.2-0.2-0.3c0.5-1.2,0.9-2.4,1.3-3.6c0.4-1.2,1-2.3,1.8-3.4c-0.2-0.1-0.3-0.1-0.2-0.2
		c0.1-0.1,0.1-0.2-0.1-0.3c0.3-1.4,0.8-2.7,1.6-4.2c0.8-1.4,1.4-2.9,1.9-4.5c0.3,0.1,0.5,0.1,0.6,0.1c-0.3-0.1-0.3-0.2-0.2-0.3
		c0.2-0.1,0.1-0.2-0.2-0.3c0.6-0.7,1.1-1.5,1.5-2.3s0.9-1.6,1.6-2.4c-0.1-0.1-0.2-0.1-0.1-0.2c0.1-0.1,0.1-0.2,0-0.4
		c0.5-0.2,0.8-0.5,0.7-0.9c0-0.5,0.2-0.8,0.6-1.1v-0.6c0.2-0.3,0.3-0.7,0.5-0.9c0.1-0.3,0.2-0.6,0.2-1c0-0.2,0-0.4,0.2-0.5
		c0.1-0.1,0.2-0.2,0.3-0.3c0-0.1,0-0.1-0.1-0.1c0,0-0.1-0.1-0.1-0.2c0-0.2,0.1-0.4,0.3-0.7c0.2-0.2,0.3-0.5,0.4-0.9
		c0.1-0.3,0.2-0.5,0.3-0.7s0.2-0.4,0.6-0.6c0.1-0.7,0.3-1.5,0.6-2.2c0.3-0.8,0.4-1.5,0.5-2.3c0.1-0.3,0.3-0.5,0.4-0.6
		c0.2-0.1,0.3-0.2,0.4-0.4c0.1-0.2,0.1-0.6,0.2-1.1c0.1-0.5,0.1-1,0.1-1.6s-0.1-1.1-0.2-1.5s-0.3-0.7-0.5-0.8
		c-0.1-0.1-0.2-0.2-0.3-0.3s-0.1-0.2-0.2-0.3c-0.3,0.1-0.4,0.2-0.4,0c0-0.1-0.2-0.2-0.4-0.3c0-0.1-0.1-0.2-0.3-0.1
		c-0.2,0-0.3,0-0.3-0.1c-0.2,0.1-0.4,0.1-0.7,0c-0.3-0.1-0.5-0.1-0.8,0.1c-0.2-0.1-0.4-0.2-0.7-0.2c-0.3,0-0.6,0-0.9-0.1
		c-0.2,0.1-0.4,0.2-0.6,0.1c-0.2-0.1-0.5-0.1-0.7-0.1c-0.5,0-0.9,0-1.1,0c-0.2,0-0.4,0-0.6-0.1c-0.2,0-0.4,0-0.6,0
		c-0.2,0-0.6,0-1.1,0.1c0.1-0.1,0-0.1-0.1,0c-0.1,0-0.2,0.1-0.3,0.2c-0.1,0.1-0.2,0.1-0.2,0.2c-0.1,0,0,0,0.1-0.2
		c0-0.1-0.1-0.2-0.3-0.1c-0.2,0-0.4,0.1-0.6,0.2c-0.2,0.1-0.4,0.2-0.6,0.2c-0.2,0.1-0.2,0.1-0.1,0c-0.5,0.2-0.9,0.6-1.3,1.1
		c-0.4,0.5-0.8,1-1.1,1.6s-0.6,1.1-0.9,1.7c-0.3,0.6-0.5,1-0.8,1.2l0.2,0.2c0,0.5-0.3,1-0.8,1.4s-0.8,0.8-0.9,1.4
		c0.1,0.1,0.2,0.4,0.3,0.9c0.1,0.2,0,0.5-0.1,1c-0.1,0.4-0.3,0.7-0.4,0.9c-0.3,0.4-0.6,0.9-0.9,1.6c-0.3,0.6-0.5,1.2-0.8,1.6
		c-0.1,0.3-0.3,0.7-0.4,0.9c-0.2,0.3-0.1,0.6,0.2,0.9c-0.4,1-0.8,2-1.3,3.1c-0.2,0.5-0.4,0.9-0.5,1.4v-0.1c-0.1-0.6-0.1-1,0.1-1.5
		c-0.2,0-0.4-0.2-0.4-0.5c-0.1-0.3-0.1-0.5-0.2-0.8c-0.9-0.9-1.8-1.8-2.5-2.7c-0.8-1-1.6-1.8-2.6-2.5c-0.1-0.3-0.2-0.4-0.2-0.1
		c0,0.2-0.1,0.3-0.2,0.2c-0.4-0.4-0.7-0.7-1.1-0.9c-0.4-0.2-0.8-0.4-1.1-0.5c-0.4-0.1-0.8-0.3-1.2-0.4c-0.4-0.2-0.8-0.4-1.1-0.7
		c-0.3,0.2-0.7,0.2-1,0.1c-0.4-0.1-0.7-0.3-1-0.5c-0.7,0.2-1.5,0.2-2.3,0s-1.6-0.3-2.3-0.3c-0.5-0.1-1-0.1-1.5-0.1
		c-0.4,0-0.8-0.1-1.2-0.3c-1.4,0.2-2.6,0.2-3.7-0.1c-0.1,0.1-0.2,0.2-0.2,0.2s-0.1,0-0.1,0.2c-0.7,0.2-1.4,0.2-2,0s-1.1-0.1-1.6,0.2
		c-0.8-0.1-1.6,0-2.3,0.1c-0.8,0.1-1.5,0.1-2.3,0c-0.5-0.2-1-0.2-1.6-0.1c-0.6,0.1-1.2,0.2-1.8,0.4c-0.8,0.1-1.6,0.2-2.4,0.3
		c-0.8,0-1.8,0.1-2.9,0.2c-0.3,0-0.7,0.1-1.2,0.2c-0.5,0.1-0.9-0.1-1.3-0.5c-0.2-0.3-0.2-0.3,0-0.2c0.1,0.1,0.2,0.1,0.2-0.1
		c0-0.1-0.2-0.2-0.4-0.5c0-0.5-0.2-1-0.4-1.5c-0.2-0.4-0.4-0.9-0.7-1.2c0-0.5,0-1-0.2-1.4c-0.1-0.5-0.3-0.9-0.4-1.1
		c-0.3,0.1-0.7,0.1-1,0.1c0-0.3,0-0.5,0-0.5c-0.1-0.1-0.2-0.2-0.3-0.2c-0.1-0.1-0.2-0.1-0.3-0.2c-0.1-0.1-0.1-0.2,0-0.4
		c-0.3,0-0.5-0.1-0.7-0.2c-0.2-0.1-0.4,0-0.7,0.1c-0.2-0.6-0.4-0.9-0.7-0.8c-0.3,0-0.6-0.1-0.8-0.4c-0.1,0.1-0.1,0.2,0,0.3
		s0.1,0.2,0,0.3c-0.4-0.2-0.8-0.2-1.1,0.1s-0.7,0.4-1.3,0.2c0,0.5,0,0.9-0.2,1.2s-0.4,0.5-0.6,0.7c-0.1,0.4-0.2,0.9-0.4,1.3
		c-0.2,0.5-0.4,0.9-0.6,1.3c-0.1,0-0.1,0-0.2,0c0,0-0.1,0-0.2,0c-0.1,0.1-0.1,0.3,0,0.4c0,0.1,0.1,0.2,0.1,0.4
		c0,0.1-0.1,0.2-0.2,0.2c-0.2,0-0.3,0-0.3,0.1c0.1,0.5,0,0.9-0.2,1.3c-0.2,0.3-0.5,0.6-0.7,0.8c0,0.1,0,0.2,0.1,0.3
		c0,0.1,0,0.2,0,0.3c0,0.2-0.2,0.7-0.6,1.4c-0.3,0.7-0.6,1.1-0.7,1.3c-0.1,0.1-0.3,0.3-0.5,0.4c-0.2,0.2-0.4,0.3-0.5,0.4
		c-0.1,0.1-0.2,0-0.3-0.1c0-0.2-0.1-0.3-0.1-0.3c-2.4,0.6-4.9,1.3-7.4,2.2c-2.5,0.8-5.2,1.6-7.8,2.2c-1.5,0.3-3,0.6-4.4,0.9
		c-1.4,0.3-2.8,0.7-4.1,1.2c-0.6,0.5-1.4,0.8-2.2,1s-1.6,0.6-2.4,1c-0.2,0.1-0.5,0.2-1.1,0.4c-0.5,0.2-0.9,0.4-1.1,0.5v0.1
		c-1.4,0.8-2.9,1.5-4.5,2.1c-0.1-0.1-0.3-0.1-0.4-0.1c-0.1,0.1-0.3,0.1-0.4-0.1c-0.1,0.5-0.3,0.8-0.6,1.1s-0.5,0.6-0.8,0.9
		c0.2,0.8,0.2,1.5,0,2.1c0.2,0.2,0.4,0.4,0.4,0.7c0.1,0.3,0.2,0.5,0.3,0.6c0.5,0.1,0.8,0,1-0.1c0.2-0.2,0.5-0.4,0.8-0.5
		c0.2,0.4,0.4,0.5,0.6,0.2c0.2-0.3,0.4-0.2,0.6,0.1c0,0.1,0,0.3-0.1,0.4c-0.1,0.1-0.2,0.1-0.3,0c0.2,0.4,0.2,0.6,0,0.7
		c-0.2,0.1-0.3,0.2-0.3,0.6c0.4,0.2,0.8,0.1,1.2-0.1c0.4-0.2,0.9-0.3,1.5-0.2c0.2-0.1,0.3-0.2,0.3-0.4s0.1-0.3,0.2-0.4
		c1.9-0.4,3.9-1.1,5.8-2c2-0.9,4.1-1.6,6.4-2.2c0.1,0.1,0.2,0.2,0.2,0.3c0.1,0.1,0.1,0.2,0.2,0.3c-0.4,0.2-0.9,0.4-1.5,0.5
		c-0.5,0.1-0.9,0.4-1.1,1c2.2-0.6,4.5-1.2,7-1.8c2.4-0.6,4.9-0.7,7.5-0.3c-0.4,1.2-0.8,2.3-1.2,3.5c-0.4,1.1-0.9,2.3-1.5,3.5
		c-0.4,1.1-0.8,2.2-1.1,3.2s-0.6,2-1,2.8c-0.2,0.6-0.5,1-0.8,1.3c-0.3,0.2-0.7,0.4-1.1,0.4c-0.1-0.1-0.3-0.2-0.4-0.2
		c-0.1,0-0.3-0.1-0.4-0.2c-0.1,0.6-0.3,0.9-0.7,0.9s-0.8,0-1.1,0.1c-0.6,0.1-1.2,0.3-1.8,0.7s-1.2,0.6-1.7,0.5c0,0.4,0,0.8-0.2,1.1
		c-0.2,0.4-0.3,0.8-0.4,1.2c0.1,0.9,0.1,1.6,0.2,2.1c0,0.5,0,1.1-0.2,1.7c0.2,0.3,0.3,0.7,0.5,1c0.2,0.4,0.4,0.7,0.6,0.9
		c-0.1,0.1-0.2,0.3-0.2,0.5s0.1,0.4,0.2,0.5c0.5-0.2,1-0.1,1.4,0.6c0.4,0.6,0.7,1.3,0.7,2.1c0,0.6-0.1,1.2-0.4,1.7
		c-0.3,0.6-0.5,1-0.6,1.4c-0.7,2.1-1.3,4.2-1.9,6.3c-0.6,2.2-1.2,4.4-1.8,6.6c0.1,0.2,0.2,0.3,0.2,0.4c0.1,0.1,0.1,0.3,0.2,0.6
		c-0.4,0.6-0.6,1.2-0.6,2c-0.1,0.7-0.1,1.5-0.1,2.3s0,1.5,0.1,2.3c0,0.8-0.1,1.4-0.3,1.9c0.2,0.3,0.3,0.7,0.3,1.1s0,0.9,0.1,1.2
		c0.3,0,0.5,0.2,0.7,0.5c0,0.2,0,0.3,0.1,0.5c-0.4,0-0.7,0.3-0.9,0.8c0.1,0.1,0.1,0.3,0.1,0.5c-0.1,0.2-0.2,0.3-0.2,0.4
		c0.1,0.1,0.1,0.2,0.3,0.3c0.1,0,0.1,0.2,0,0.4c-0.1,0-0.1,0-0.1-0.1s-0.1-0.1-0.2,0c0-0.3,0-0.4-0.2-0.4c-0.1,0.1-0.2,0.1-0.3,0.1
		c-0.2,0.8-0.6,1.2-1,1.4c-0.5,0.2-0.9,0.5-1.3,1.1c0.7,0.1,1.2-0.1,1.7-0.4c0.5-0.4,1.1-0.6,1.8-0.7c0.1,0.1,0.2,0.1,0.3,0.1
		s0.2,0,0.3,0c0.2,0.2,0.3,0.5,0.3,0.7c-0.1,0.3,0,0.5,0.2,0.7c0.3,0.2,0.5,0.2,0.8,0.1s0.6-0.1,0.9-0.1c0.5,0,1,0.1,1.3,0.2
		c0.3,0.2,0.6,0.3,1,0.3c0-0.4,0.2-0.7,0.4-0.8c0.2,0.3,0.5,0.3,0.9,0.1c0.4-0.2,0.7-0.1,1,0.3l-0.1,0.6l-0.8-0.1l0.1,0.8
		c0.2,0.1,0.3,0.1,0.4,0.1c0.1,0,0.2-0.1,0.4-0.2c0.2,0.2,0.2,0.3,0.1,0.6c-0.1,0.2,0,0.4,0.2,0.5c0.2-0.1,0.3-0.3,0.2-0.5
		s0-0.5,0.2-0.6c0.4,0.2,0.9,0.3,1.3,0.1c0.5-0.2,0.9-0.3,1.2-0.6c0.2,0.2,0.4,0.2,0.5,0.2c0.2,0,0.4,0,0.5,0.2
		c-0.1,0.3-0.3,0.5-0.5,0.6s-0.4,0.3-0.6,0.6c0.1,0,0.2,0.1,0.2,0.2s0,0.2,0.2,0.2c0.2-0.1,0.5-0.2,0.8-0.2s0.6-0.2,1-0.4
		c0.3,0.2,0.4,0.4,0.5,0.9c0.1,0.4,0.3,0.5,0.7,0.2c0,0.2,0,0.3-0.1,0.4s-0.2,0.2-0.3,0.6c0.4,0.2,0.8,0.1,1.3-0.2
		c0.5-0.3,0.9-0.2,1.2,0.3c0.7-0.1,1.3-0.3,1.7-0.7c0.4-0.4,0.9-0.6,1.7-0.6c0.1,0.1,0.1,0.1,0.1,0s0-0.1,0.2-0.1
		c0,0.1,0,0.2,0.2,0.2c0.1,0,0.2,0.1,0.1,0.2c-0.1,0.1-0.2,0.2-0.3,0.3c-0.1,0.1-0.1,0.2,0,0.3c0.3,0,0.4-0.1,0.5-0.2
		c0.1-0.2,0.2-0.3,0.3-0.5c0.1,0.1,0.2,0.2,0.1,0.3c0,0.1,0,0.2,0.1,0.2c0.8-0.3,1.6-0.6,2.6-0.9s1.8-0.7,2.4-1.2
		c0.1-0.1,0.4-0.1,0.7,0c0.3,0,0.6,0,0.7-0.2c0.3,0.2,0.5,0.2,0.8,0.1s0.5-0.2,0.7-0.3c0.9,0.1,1.6-0.1,2.1-0.5s1.1-0.7,1.9-0.7
		c0.3-0.5,0.6-0.8,1.1-0.8c0.5-0.1,0.9-0.2,1.3-0.3c0.1-0.1,0.3-0.1,0.4-0.2c0.1-0.1,0.3-0.2,0.4-0.3c0.5-0.2,1-0.3,1.4-0.4
		s0.9-0.2,1.3-0.3c0-0.1,0.1-0.2,0.2-0.2c0.1,0,0.2-0.1,0.3-0.1c0.7-0.1,1.2-0.3,1.7-0.8c0.4-0.5,1.1-0.7,1.9-0.9
		c0.7-0.5,1.5-1,2.2-1.4s1.6-0.7,2.6-0.9v-0.4c0.6,0.1,1.3-0.2,2-0.8c0.7-0.1,1.4-0.4,2-0.8s1.3-0.7,2.1-0.9c0.1-0.1,0.1-0.1,0-0.2
		c-0.1,0-0.1-0.1,0.1,0c0.3,0,0.6-0.2,0.9-0.6c0.3,0,0.6-0.1,1-0.5c0.3-0.3,0.7-0.5,1.2-0.5c0.1,0,0.1,0,0.1-0.1s0.1-0.2,0.1-0.2
		c0.4-0.2,0.9-0.4,1.5-0.8c0.6-0.3,1.1-0.7,1.5-1.1c0.1,0,0.2,0.1,0.1,0.2c0,0.1,0,0.2,0.1,0.4c-0.2-0.2-0.3-0.1-0.4,0.2
		c-0.1,0.3-0.1,0.4,0,0.5c0.2-0.4,0.4-0.7,0.8-0.6c0.3,0,0.5-0.2,0.6-0.8c-0.1-0.1-0.2-0.1-0.4,0.1c-0.1,0.1-0.2,0.1-0.3,0v-0.3
		c0.1,0,0.2,0,0.2,0.1l0.1,0.1c0.2-0.4,0.4-0.8,0.8-0.9c0.4-0.2,0.6-0.3,0.8-0.4c-0.1,0.1-0.2,0.2-0.3,0.3c-0.1,0.1-0.2,0.2-0.4,0.3
		c0,0.2,0.1,0.3,0.4,0.3c0.2-0.3,0.3-0.4,0.5-0.6c0.1-0.1,0.2-0.3,0.3-0.6c-0.1-0.1-0.1-0.1-0.1,0s-0.1,0.1-0.1,0
		c0.2-0.8,0.6-1.3,1.1-1.7c0.5-0.3,0.9-0.9,1.2-1.6c0.1-0.1,0.2-0.1,0.3-0.2s0.2-0.1,0.3-0.3c0-0.3,0.2-0.5,0.4-0.8s0.4-0.5,0.6-0.8
		c0-0.7,0.2-1.5,0.5-2.2c0.2-0.4,0.3-0.8,0.4-1.2c0,0.2,0,0.4-0.1,0.6c-0.4,1.9-0.8,3.7-1.2,5.4c-0.4,1.7-0.7,3.3-1,5
		c-0.2,1.6-0.4,3.2-0.4,4.8c0,1.6,0.1,3.3,0.4,5.1c0,0.5-0.1,0.9-0.2,1c-0.1,0.1,0,0.4,0.3,0.7c0.3,0,0.5,0.2,0.6,0.3
		c0,0.2,0.2,0.2,0.5,0c0-0.1,0-0.2-0.1-0.3c0-0.1,0.2-0.2,0.6-0.3c-0.2-0.5-0.2-0.8,0-0.7c0.1,0,0.2-0.2,0.1-0.8
		c0.1-0.1,0.1-0.2,0.1-0.3s0.1-0.3,0.4-0.6c0.1,0.3,0.3,0.6,0.5,0.8c0.3-0.1,0.4-0.2,0.4-0.3c0-0.1,0-0.2,0-0.4
		c0-0.2-0.1-0.3-0.1-0.4s0-0.3,0.1-0.5c-0.2,0.3-0.3,0.4-0.3,0.3s-0.1-0.1-0.2,0c0.3-0.2,0.4-0.3,0.2-0.5s-0.2-0.5,0.2-0.8
		c0.3,0.1,0.5,0.1,0.6,0s0.2-0.2,0.5-0.3c0.1,0,0.3,0,0.5,0s0.4,0,0.6,0c0.2-0.3,0.5-0.6,0.8-0.9s0.4-0.6,0.5-1
		c0.1-0.1,0.2-0.1,0.3-0.2s0.2-0.1,0.3,0c0.2-0.4,0.3-0.9,0.3-1.3c0-0.5,0.4-0.9,1.2-1.3c-0.3-0.2-0.2-0.5,0.1-0.8
		c0.3-0.4,0.7-0.7,1-1c-0.1,0.2-0.2,0.4-0.3,0.7c-0.1,0.3,0.1,0.5,0.4,0.6c0.2,0,0.3-0.1,0.3-0.3c0-0.2,0-0.3,0-0.5
		c0.2-0.5,0.2-0.9,0.1-1.3c-0.1-0.4,0-0.8,0.3-1.2c-0.1,0-0.1,0-0.2-0.1c0-0.1,0-0.2,0.1-0.2c0.1-0.5,0.2-1.1,0.3-1.6s0.3-1,0.6-1.6
		c0-0.7,0.2-1.5,0.5-2.2s0.5-1.4,0.6-2c0.1,0,0.2-0.1,0.1-0.2c-0.1-0.1,0-0.3,0.3-0.5c0.3,0.2,0.5,0.4,0.4,0.5
		c-0.1,0.2,0,0.3,0.1,0.4c0.5-0.3,0.7-0.6,0.7-1c-0.1-0.4-0.1-0.7-0.1-0.8c0.5-0.7,0.8-1.3,0.9-1.9c0.1-0.5,0.3-1,0.5-1.4
		c0,0.3-0.1,0.6,0,1.1c0,0.3,0.1,0.7,0.1,1c0.1,0.4,0.1,0.7,0.1,1l0.1,1l0.1,1.7c0,0.3,0,0.6,0,0.8c-0.1,0.2-0.1,0.4-0.2,0.7
		c0,0.3,0.1,0.7,0.2,1c0.1,0.4,0.2,0.7,0.2,1v0.4c0.6,0.7,1,1.3,1.2,1.8s0.5,1.1,0.9,1.8c0.6,0.3,1.1,0.7,1.6,1.1
		c0.5,0.5,0.9,0.9,1.4,1.3c0.4,0.4,0.9,0.8,1.5,1.1c0.5,0.3,1.1,0.5,1.8,0.4h0.4c0.5,0.4,1.2,0.7,2,0.8c0.8,0.1,1.7,0.2,2.6,0.1
		c1.5-0.1,2.9-0.5,4.1-1.1c0.1,0,0.2,0,0.3,0c0,0,0.1,0.1,0.3,0.1c0.1-0.1,0.1-0.2,0.2-0.3c0.1-0.1,0.2-0.2,0.2-0.3
		c0.1,0.1,0.3,0.1,0.6,0c1.1-0.1,2.3-0.7,3.7-1.8c1.4-1.1,2.8-2.1,4.2-2.9c0.8-0.3,1.6-0.8,2.3-1.3c0.8-0.5,1.5-1,2.3-1.6
		c0.7-0.5,1.4-1.1,1.9-1.6c0.6-0.5,0.9-1,1.2-1.4c-0.1,0.1,0.1-0.1,0.5-0.7c0.5-0.6,1.1-1.3,1.7-2.1c0.7-0.8,1.3-1.5,2-2.2
		c0.6-0.7,1.1-1,1.3-1.1l0.1,0.1c0.1-0.4,0.3-0.7,0.7-0.9c0.3-0.2,0.6-0.5,0.7-0.9v0.1l0.1,1l0.1,1.7c0,0.3,0,0.6,0,0.8
		c-0.1,0.2-0.1,0.4-0.2,0.7c0,0.3,0.1,0.7,0.2,1c0.1,0.4,0.2,0.7,0.2,1v0.4c0.6,0.7,1,1.3,1.2,1.8s0.5,1.1,0.9,1.8
		c0.6,0.3,1.1,0.7,1.6,1.1c0.5,0.5,0.9,0.9,1.4,1.3c0.4,0.4,0.9,0.8,1.5,1.1c0.5,0.3,1.1,0.5,1.8,0.4h0.4c0.5,0.4,1.2,0.7,2,0.8
		c0.8,0.1,1.7,0.2,2.6,0.1c1.5-0.1,2.9-0.5,4.1-1.1c0.1,0,0.2,0,0.3,0c0,0,0.1,0.1,0.3,0.1c0.1-0.1,0.1-0.2,0.2-0.3
		c0.1-0.1,0.2-0.2,0.2-0.3c0.1,0.1,0.3,0.1,0.6,0c1.1-0.1,2.3-0.7,3.7-1.8c1.4-1.1,2.8-2.1,4.2-2.9c0.8-0.3,1.6-0.8,2.3-1.3
		c0.8-0.5,1.5-1,2.3-1.6c0.7-0.5,1.4-1.1,1.9-1.6c0.6-0.5,0.9-1,1.2-1.4c-0.1,0.1,0.1-0.1,0.5-0.7s1-1.2,1.6-1.9
		c0,0.7-0.1,1.5-0.1,2.4c-0.1,0.9,0,1.8,0.4,2.5c0,0.2,0.1,0.3,0.2,0.2c0.1-0.1,0.2,0,0.1,0.1c0,0.3,0,0.5,0.1,0.7
		c0,0.2,0.1,0.4,0.3,0.5c0-0.3,0-0.7-0.1-1s-0.1-0.7,0-1.1c0.1-0.1,0.2-0.1,0.3,0.1c0.1,0.1,0.2,0.3,0.2,0.4
		c0.2,0.4,0.3,0.8,0.5,1.3c0.1,0.5,0.4,0.8,0.7,0.9c0.1,0.2,0.1,0.4,0,0.6s0,0.3,0.2,0.3s0.3-0.1,0.2-0.2c-0.1-0.1,0-0.1,0.1-0.2
		c0.4,0.3,0.8,0.6,1.3,0.9s1,0.5,1.5,0.6c-0.1,0.1,0,0.3,0.1,0.4s0.2,0.3,0.2,0.4c-0.1,0.1-0.2,0.1-0.2,0.1s0,0,0,0.2
		c0.2-0.1,0.5-0.2,1-0.3c0.5-0.1,0.8-0.1,1,0.3c-0.3,0.2-0.6,0.4-0.9,0.6s-0.6,0.4-0.9,0.6c0.1,0.1,0.3,0.1,0.4,0s0.3-0.2,0.4-0.1
		c0.7,0.4,1.2,0.3,1.4-0.3c0.2-0.6,0.5-1.1,0.7-1.6c0.1-0.1,0.2-0.3,0.3-0.3c0.1-0.1,0.2-0.2,0.3-0.3c0.5-0.8,0.9-1.5,1.4-2.3
		s0.9-1.4,1.4-2c-0.1-0.2-0.1-0.3,0-0.3s0.1-0.1,0.1-0.3c0.4-0.3,0.7-0.6,0.9-1c0.1,0,0.2,0,0.2,0s0.1,0,0.2,0
		c0.9-0.6,1.7-1.4,2.4-2.2c0.7-0.9,1.4-1.7,2-2.4c0.1-0.1,0.2-0.3,0.4-0.4c0.1-0.1,0.2-0.2,0.4-0.4c0.2-0.1,0.3-0.3,0.4-0.5
		s0.2-0.4,0.3-0.5c0.7-0.9,1.3-1.8,2.1-2.6c0.7-0.8,1.4-1.7,2.1-2.6c0.2,0.3,0.3,0.7,0.3,1.1c0,0.4,0,0.8,0,1.3c0,0.4,0,0.8,0,1.2
		c0,0.4,0.1,0.7,0.3,0.9c-0.1,0.1-0.1,0.2-0.1,0.2s0,0,0,0.2c0,0.3,0.1,0.7,0.2,1s0.2,0.7,0.4,1.1c0.5,0.2,0.9,0.5,1.4,0.9
		s1,0.4,1.6,0.1c0,0.4,0.3,0.5,0.8,0.3s0.9-0.4,1.2-0.5c0.1,0.2,0.4,0.3,0.7,0.2c0.3-0.1,0.6,0,0.7,0.3c0.3-0.3,0.6-0.6,1-0.8
		c0.3-0.2,0.7-0.5,1-0.7c0.4-0.1,0.7-0.3,0.9-0.6c0.2-0.3,0.5-0.6,0.8-0.8c0.8-1,1.7-2,2.7-2.9c1-1,1.9-1.9,2.7-2.9
		c0.2-0.3,0.5-0.5,0.7-0.7s0.5-0.4,0.7-0.7c0.3-0.2,0.6-0.5,0.7-0.8c0.2-0.3,0.4-0.6,0.7-1c0.7-0.7,1.3-1.3,1.9-2s1.2-1.3,1.8-1.8
		c0,0.3-0.1,0.7-0.2,1s-0.1,0.8-0.1,1.3c0,0.2,0,0.4,0,0.7c0.1,0.2,0.1,0.4,0.1,0.5c-0.1,0.3-0.2,0.6-0.3,0.8
		c-0.1,0.2-0.2,0.5-0.3,0.8c-0.3,1.6-0.3,3.2-0.1,4.9c0.2,1.7,0.2,3.3,0,4.8c0.1,0.1,0.3,0.3,0.3,0.5c-0.1,0.8,0.1,1.8,0.4,2.8
		c0.3,1.1,0.6,2,0.8,2.7c0.1,0.1,0.1,0.2,0.2,0.2c0,0,0.1,0.1,0.1,0.2c0.3,0.7,0.5,1.4,0.6,2c0.2,0.6,0.4,1.1,0.7,1.6
		c0.1,0.1,0.3,0.2,0.4,0.4c0.1,0.1,0.3,0.3,0.4,0.5c0.1,0.1,0.1,0.2,0.1,0.3c0,0.1,0,0.2,0.1,0.3c0.2,0.4,0.4,0.7,0.7,0.8
		c0.3,0.1,0.5,0.4,0.6,0.9c0.5,0.2,0.9,0.6,1.2,1.1c0.3,0.5,0.7,0.9,1.2,1.2c0.3,0,0.5-0.1,0.6-0.3c0.1-0.1,0.3-0.2,0.5-0.1
		c0-0.4,0.1-0.7,0.1-1s0.1-0.5,0.4-0.7c0.1-0.5,0-0.8-0.2-1.1c-0.2-0.2-0.4-0.5-0.5-0.9c-0.2-0.7-0.1-1.6,0.2-2.7
		c0.3-1.1,0.3-2,0.1-2.7c0.1-0.1,0.2-0.2,0.2-0.3s0-0.2,0.1-0.4c-0.1-0.6-0.1-1.1,0-1.6s0.3-1,0.4-1.5c0,0.3,0.1,0.6,0.1,0.7
		c0,0.2,0,0.4,0,0.8c0.2-0.2,0.4-0.6,0.4-1.1s0.1-0.9,0.1-1.3c0.1-0.1,0.1-0.3,0.1-0.4s0-0.2,0.1-0.4c-0.2-0.2-0.3-0.5-0.2-0.9
		c0.1-0.3,0.2-0.7,0.2-1c0.1-0.5,0.1-0.9,0-1.4s-0.1-0.9,0-1.2c0.1-0.3,0.2-0.6,0.3-0.8c0.1-0.2,0.1-0.5-0.1-0.9
		c0-0.3,0.1-0.5,0.2-0.7s0.1-0.5,0-0.9c0.1,0,0.2-0.1,0.2-0.3s0-0.3,0.2-0.4c0.1-0.7,0.2-1.2,0.4-1.6c0.2-0.4,0.3-1,0.4-1.6
		c0-0.3,0.1-0.6,0.3-0.8c0.2-0.2,0.3-0.5,0.4-0.7c0.1-0.1,0.1-0.3,0.1-0.5s0-0.4,0.1-0.6c0.1-0.1,0.1-0.2,0.1-0.3
		c0,0,0.1-0.1,0.1-0.3c0.1-0.1,0.1-0.2,0-0.2c-0.1-0.1-0.1-0.2,0-0.2c0.2-0.5,0.4-1,0.6-1.4c0.3-0.4,0.4-0.8,0.3-1.4
		c0.3-0.2,0.4-0.4,0.4-0.7s0-0.6,0.1-0.9c0-0.2,0.1-0.4,0.2-0.6c0.1-0.2,0.2-0.4,0.3-0.7c0-0.3,0.1-0.6,0.1-0.9
		c0-0.3,0.1-0.6,0.2-0.9c0.3-0.8,0.5-1.5,0.8-2.3s0.4-1.5,0.3-2.2c0.1-0.5,0.2-1.1,0.3-1.6c0.1-0.5,0.2-0.9,0.3-1.3
		c0-0.3,0.1-0.7,0.1-1.2c0.1-0.4,0.1-0.8,0.1-1.1C384.6,229.1,384.6,229,384.5,228.9z M227.5,289.1c-0.3,0-0.4-0.2-0.3-0.6
		c0.1,0,0.1,0,0.2,0.1c0,0.1,0.1,0,0.1-0.1c0,0.1,0,0.2,0.1,0.3C227.6,288.8,227.6,288.9,227.5,289.1z M240.8,225.1
		c0.2,0.1,0.3,0.3,0.1,0.5c-0.1,0.1-0.1,0.3-0.1,0.4v0.1c-0.1-0.1-0.1-0.2-0.1-0.4C240.8,225.5,240.8,225.3,240.8,225.1z
		 M191.7,236.9c0.1,0.1,0.2,0,0.4-0.1c0-0.3,0-0.4-0.1-0.3c-0.1,0-0.2,0-0.2-0.2c0.3-1.4,0.7-2.6,1.2-3.7c0.5-1.1,0.9-2.3,1.2-3.6
		c1-0.3,1.9-0.6,2.8-0.9c0.9-0.3,1.9-0.6,3-0.8c0.8-0.2,1.6-0.3,2.5-0.2s1.8,0,2.7-0.2c1.4-0.3,2.8-0.5,4.3-0.7
		c1.5-0.1,2.9-0.2,4.2-0.1c-1,1-2.1,1.8-3.3,2.2s-2.3,1.1-3.3,2c-0.3-0.1-0.5-0.1-0.6,0.1c-0.2,0.1-0.4,0.2-0.7,0.1
		c-0.3,0.2-0.4,0.4-0.5,0.7c-0.6,0.4-1.4,0.7-2.4,1c-0.9,0.3-1.8,0.6-2.5,0.9c-0.4,0.2-0.8,0.5-1.1,0.7s-0.7,0.4-1.2,0.5
		s-1.1,0.3-1.6,0.6s-1.1,0.6-1.6,0.9c-0.1,0.7-0.6,1.2-1.3,1.4s-1.3,0.4-1.9,0.5l-0.1-0.2C191.5,237,191.6,236.8,191.7,236.9z
		 M194.5,266.1c0,0.1-0.1,0.1-0.2,0.1c-0.1,0-0.2-0.1-0.2-0.3c0.1,0.1,0.1,0.2,0.2,0.1C194.4,266,194.5,266,194.5,266.1z
		 M167.1,284.9c0.3-0.6,0.5-1.3,0.6-2c0.2,0,0.4,0.1,0.5,0.1s0.3,0.1,0.4,0.3c0,0.3-0.1,0.5-0.3,0.8c-0.1,0.3-0.2,0.5-0.2,0.6
		c0,0,0,0,0.1,0c-0.4,0.2-0.8,0.4-1.2,0.6C167,285.1,167.1,285,167.1,284.9z M165.2,285.3c0.1-0.2,0.2-0.3,0.3-0.4
		c0.2-0.1,0.3-0.2,0.5-0.2s0.3,0.1,0.4,0.4c-0.1,0.1-0.1,0.2-0.1,0.4c-0.3,0.1-0.6,0.2-1,0.4C165.2,285.7,165.2,285.5,165.2,285.3z
		 M165.5,288.1c0.1-0.1,0.2,0,0.3,0.1c0,0-0.1,0.1-0.2,0.3c-0.1,0-0.2-0.1-0.1-0.2C165.6,288.2,165.6,288.2,165.5,288.1z
		 M163.3,284.3c0.1,0.1,0.3,0.3,0.4,0.6c0.1,0.3,0.3,0.5,0.4,0.7c0.1,0.2,0.3,0.3,0.5,0.4c0.1,0,0.2,0,0.3,0c-0.1,0-0.1,0-0.2,0.1
		c-0.2,0-0.4,0-0.5,0c0-0.1,0.1-0.1,0.1-0.2c-0.1-0.1-0.3,0-0.4,0.3c-0.1,0-0.3,0.1-0.4,0.1c0-0.3-0.1-0.6-0.2-0.9
		C163,285,163.1,284.6,163.3,284.3z M171.7,291.9c-0.5,0.1-0.8,0.1-0.9,0c-0.2,0.3-0.4,0.5-0.8,0.6c-0.4,0.1-0.7,0.1-1,0.3
		c0-0.4,0.1-0.7,0.3-1s0.5-0.6,0.7-0.9c0.1,0.8,0.4,1.1,0.9,0.8c0.5-0.3,0.9-0.5,1.4-0.6C172.3,291.5,172.1,291.8,171.7,291.9z
		 M172.4,287c-1.1,0.5-2.1,0.9-3,1.3s-1.8,1-2.7,1.7c-1.1-0.1-2.1,0.1-2.8,0.7c-0.3-0.2-0.4-0.2-0.6-0.2c-0.1,0.1-0.3,0-0.6-0.2
		l0.1-0.5c0.3,0.3,0.6,0.3,0.8,0.1c0.3-0.2,0.5-0.4,0.7-0.5c0.1,0.1,0.2,0.1,0.2,0.2c0,0,0-0.1,0.1-0.3c0.1-0.1,0.3-0.2,0.6-0.1
		c0.2,0,0.4,0,0.6-0.1c0.1,0,0.2,0,0.2-0.1v-0.1c0.3,0,0.5,0,0.6,0.1s0.2,0,0.3-0.3c0.4,0.1,0.8,0,1.1-0.3c0.4-0.3,0.7-0.6,0.9-0.9
		c0.3,0.2,0.6,0.2,0.9,0.2c0.3-0.1,0.5-0.3,0.7-0.5s0.4-0.4,0.7-0.5c0.2-0.1,0.4-0.1,0.5,0s0.2,0,0.3-0.2
		C172.3,286.6,172.5,286.7,172.4,287z M173.5,286.5c-0.2-0.2-0.3-0.2-0.4,0c-0.1,0.1-0.3,0.2-0.5,0.2v-0.3c0.1-0.1,0.3-0.1,0.4-0.2
		c0.1-0.1,0.3-0.2,0.5-0.2V286.5z M174.6,286c-0.3,0-0.6,0.1-0.9,0.4V286c0.3-0.1,0.5-0.3,0.6-0.4c0.2-0.2,0.4-0.3,0.6-0.3
		c0.1,0.1,0.2,0.1,0.3,0.1C175.1,285.7,174.9,285.9,174.6,286z M183.1,294.5c-0.1,0.1-0.3,0.1-0.6,0.1c0.1-0.3,0.2-0.4,0.5-0.5
		c0.2-0.1,0.4-0.2,0.5-0.4c0.1,0.1,0.2,0.2,0.1,0.3c0,0.1,0,0.2,0,0.3C183.4,294.3,183.2,294.4,183.1,294.5z M202.8,266.9
		c-0.1,0,0,0.1,0.1,0.3c-0.3,0-0.5,0-0.6,0.1s-0.2,0.2-0.4,0.2v0.4c-0.6,0.3-1,0.6-1.5,0.9c-0.4,0.3-0.9,0.7-1.4,1.2
		c-0.3-0.1-0.4,0-0.6,0.1c-0.1,0.2-0.3,0.4-0.4,0.6c-0.1,0.1-0.3,0.1-0.4,0.1c-0.1,0-0.3,0-0.4,0.2c-0.1,0.1-0.3,0.2-0.6,0.3
		c-0.3,0.1-0.5,0.3-0.8,0.5c-0.4,0.2-0.7,0.3-1,0.5s-0.6,0.3-0.9,0.5c-0.4,0.3-0.7,0.5-1,0.6s-0.6,0.2-0.9,0.4
		c-0.1,0.1-0.3,0.2-0.4,0.4c-0.1,0.1-0.2,0.2-0.4,0.4c-0.4,0.2-0.7,0.3-1,0.5s-0.7,0.4-1,0.4c-0.1,0.1-0.2,0.1-0.3,0
		c-0.1,0-0.2,0-0.3,0.1c-0.4,0.3-0.9,0.6-1.3,0.9c-0.5,0.3-0.9,0.4-1.2,0.3c-0.5,0.6-1,0.9-1.7,1.2c-0.7,0.2-1.3,0.5-1.9,0.9
		c-0.1-0.1-0.2-0.2-0.1-0.3c0.1-0.1,0-0.1-0.1-0.2c-0.1,0.2-0.2,0.3-0.4,0.3s-0.3,0-0.4,0.1c-0.1,0.1-0.3,0.2-0.5,0.3
		c-0.2,0.1-0.4,0.3-0.6,0.4c-0.1,0-0.2-0.1-0.2-0.1c-0.3,0.1-0.6,0.3-0.8,0.6c-0.2,0.3-0.3,0.3-0.5-0.1c-0.2,0.4-0.6,0.6-1.1,0.7
		s-0.9,0.3-1.3,0.6c-0.1,0-0.1,0-0.1-0.1c0,0,0-0.1-0.1-0.1c-0.4,0.4-0.8,0.6-1.2,0.7s-0.8,0.3-1.1,0.6c-0.6,0.2-1.2,0.5-1.9,0.9
		s-1.4,0.6-1.9,0.8c-0.1-0.1-0.3-0.1-0.5,0.1s-0.4,0.2-0.6,0.1c0,0.2-0.1,0.3-0.2,0.3h-0.2c0-0.1,0-0.2,0.1-0.2
		c0.1-0.2,0.2-0.4,0.2-0.6h0.4c1-1.8,1.9-3.6,2.8-5.4c0.9-1.7,1.8-3.5,2.7-5.4c0.1-0.5,0.3-1,0.6-1.4s0.5-0.8,0.7-1.3
		c0.1,0.1,0.1,0.2,0.1,0.1s0.1-0.1,0.2-0.1c0.1-0.5,0.2-0.9,0.5-1.1c0.2-0.2,0.4-0.5,0.5-0.7c0.1,0,0.2,0,0.2,0s0,0,0.1,0l0.1-0.1
		c0.1,0,0.2,0,0.4,0.1c1,0.1,2.2,0.1,3.6-0.1c0,0.2,0.2,0.3,0.6,0.4c0-0.1,0.1-0.3,0.2-0.4c1.6-0.3,3.1-0.5,4.5-0.7s3-0.1,4.7,0
		c-0.2,0.3-0.4,0.4-0.6,0.4c-0.2-0.1-0.5-0.1-0.7-0.1c0,0.3-0.1,0.4-0.3,0.3s-0.3,0-0.3,0.2c0.1,0,0.2,0.1,0.3,0.1
		c0.1,0.1,0.2,0.1,0.3,0.1c0.1-0.2,0.2-0.3,0.4-0.3s0.4,0,0.6,0c0.2,0,0.3,0,0.5,0c0.1,0,0.2-0.2,0.3-0.4c-0.1-0.1-0.2-0.2-0.2-0.2
		c0-0.1-0.1-0.1-0.1-0.2c0.5,0,1,0,1.3-0.1c0.3,0,0.7-0.1,1.2-0.1c0,0.1,0,0.1-0.1,0.2c-0.1,0-0.1,0-0.2-0.1c-0.1,0-0.2-0.1-0.3-0.1
		c-0.1,0.2-0.2,0.3-0.4,0.3s-0.3,0.1-0.4,0.4c0.2,0.1,0.4,0.1,0.7,0.1s0.6,0,0.9,0V268c0.4,0.1,0.7,0.2,0.9,0.1c0.2,0,0.6,0,1.1,0.1
		c0-0.2,0-0.4-0.1-0.7c-0.5-0.1-0.8-0.2-1.1-0.1c-0.3,0-0.5,0-0.7-0.2c1.3-0.1,2.7-0.3,4.2-0.5s2.8-0.1,3.9,0.1
		C202.9,266.8,202.9,266.9,202.8,266.9z M238,234.3c-0.1,0.2-0.2,0.4-0.3,0.5c-0.3,1.1-0.7,2.1-1.1,3.1c-0.4,1-0.6,1.9-0.7,2.8
		c-0.6,1-1,2.1-1.3,3.1c-0.3,1.1-0.6,2.1-1,3.1c-0.1,0.2-0.1,0.4-0.1,0.5c-0.1,0.9-0.3,1.7-0.6,2.5c-0.4,0.8-0.6,1.8-0.7,2.8
		c-0.1-0.1-0.2-0.1-0.3,0c-0.1,0-0.2,0.1-0.3,0.2c0,0.6-0.1,1.1-0.4,1.6c-0.2,0.5-0.2,1-0.1,1.5c-0.1,0.3-0.2,0.7-0.3,1.2
		c-0.1,0.4-0.1,0.8,0.2,1.1c-0.2,0.5-0.3,0.9-0.5,1.3c-0.1,0.4-0.2,0.8-0.2,1.2c-0.1,1.1-0.4,2.3-0.7,3.4c-0.2,0.7-0.4,1.3-0.5,2
		c0-0.1,0-0.2,0-0.3c0.1-0.7-0.1-1.2-0.4-1.7l-0.1-0.1c0-0.1,0-0.2,0.1-0.4c-0.1-0.2-0.3-0.5-0.4-0.7c0-0.2,0-0.4,0-0.6
		c-0.4-0.4-0.7-0.9-0.9-1.5c-0.1-0.2-0.2-0.4-0.4-0.6l0.1-0.3l-0.3-0.1c-0.1-0.2-0.3-0.3-0.4-0.4l0.1-0.2c-0.1,0-0.1-0.1-0.2-0.1
		V259h-0.4c-0.1-0.1-0.2-0.1-0.3-0.2l-0.1-0.1v-0.4c-0.1-0.1-0.3-0.1-0.4-0.2c0,0,0-0.1-0.1-0.1c-0.6-0.6-1.2-1-1.8-1.4
		s-1.2-0.9-1.8-1.4l-0.3-0.1l-0.1-0.2c-0.3,0-0.5,0-0.6-0.1s-0.2-0.2-0.3-0.3c-0.3,0.1-0.5,0.1-0.7-0.1c-0.2-0.2-0.3-0.3-0.4-0.3
		c-0.1-0.1-0.2-0.1-0.4-0.1c-0.1,0-0.3,0-0.4,0c0-0.1-0.1-0.3-0.3-0.5c-0.5-0.2-1-0.3-1.6-0.5c-0.6-0.1-1.1-0.3-1.5-0.7
		c-0.7-0.3-1.3-0.5-2-0.6c-0.6-0.1-1.4-0.4-2.5-0.7c0.1-0.3,0-0.4-0.3-0.5c-0.1,0.1-0.2,0.2-0.2,0.1c-0.1,0-0.2,0-0.3,0.1
		c-1.6-0.3-3.1-0.6-4.5-0.8c0.2-0.1,0.3-0.1,0.5-0.2c1.1-0.4,2.1-0.8,3-1.1s1.9-0.7,2.9-1.1c1-0.4,1.9-0.8,2.8-1.5
		c0,0.3,0.2,0.4,0.4,0.4c0.1-0.3,0.3-0.5,0.5-0.6s0.4,0,0.7,0.1c0.2-0.4,0.4-0.6,0.8-0.6c0.4,0,0.7,0,1-0.2c0.1-0.1,0.1-0.2,0.1-0.3
		s0.1-0.2,0.2-0.2c0.5-0.2,0.9-0.3,1.5-0.4c0.5-0.1,0.9-0.2,1.3-0.4c0.3-0.4,0.5-0.6,0.7-0.8c0.2-0.1,0.6-0.1,1.1-0.2
		c0.3-0.2,0.6-0.4,0.8-0.6c0.2-0.3,0.5-0.5,0.8-0.7c0.7-0.4,1.4-0.7,2-0.9s1.2-0.5,1.7-0.9c0.3,0,0.4,0.1,0.5,0.3
		c0.7-0.9,1.4-1.4,2.4-1.7c0.9-0.2,1.7-0.7,2.4-1.5c0.5-0.2,0.9-0.3,1.3-0.5c0.3-0.2,0.7-0.4,1.3-0.6c0.4-0.2,0.7-0.4,0.9-0.6
		c0.5-0.4,0.9-0.8,1.2-1.4c0.2-0.4,0.4-0.6,0.7-0.8c-0.1,0.2-0.2,0.3-0.2,0.5l0.1,0.1C238.1,234,238.1,234.1,238,234.3z
		 M241.9,263.2c0-0.1,0.1-0.2,0.1-0.3c0,0,0,0,0,0.1v0.3C242,263.4,242,263.3,241.9,263.2C241.9,263.4,241.8,263.3,241.9,263.2z
		 M274.2,252.5c-0.3,0.6-0.6,1.1-1,1.5s-0.7,0.8-1.1,1.1c-0.3,0.3-0.5,0.5-0.6,0.6c-0.3,0.4-0.8,1-1.6,1.6c-0.8,0.7-1.6,1.3-2.4,2
		c-0.8,0.7-1.6,1.3-2.3,1.9c-0.7,0.6-1.1,1-1.2,1.3h-0.2c-0.3,0-0.6,0.2-0.7,0.5c-0.1,0.3-0.4,0.5-0.7,0.5l-0.2-0.1
		c-0.5,0.6-1.2,1.2-1.8,1.5c-0.7,0.4-1.4,0.7-2.2,1.1c-0.3-0.1-0.5-0.3-0.5-0.5c-0.1-0.2-0.3-0.3-0.6-0.2h-0.3
		c0.6-1.5,1.4-3.1,2.3-4.7c1-1.6,2-3.3,3.1-4.9c1.5-2.2,2.9-4.1,4-5.6s2.2-3,3.4-4.4c0.3,0.4,0.7,0.7,1.3,1s1.1,0.7,1.6,1
		c0.5,0.4,1,0.7,1.4,1.2c0.4,0.4,0.6,0.9,0.7,1.5C274.6,251.3,274.5,251.9,274.2,252.5z M316.2,247.7c-0.3,0.6-0.6,1.1-1,1.5
		s-0.7,0.8-1.1,1.1c-0.3,0.3-0.5,0.5-0.6,0.6c-0.3,0.4-0.8,1-1.6,1.6c-0.8,0.7-1.6,1.3-2.4,2s-1.6,1.3-2.3,1.9
		c-0.7,0.6-1.1,1-1.2,1.3h-0.2c-0.3,0-0.6,0.2-0.7,0.5s-0.4,0.5-0.7,0.5l-0.2-0.1c-0.5,0.6-1.2,1.2-1.8,1.5
		c-0.7,0.4-1.4,0.7-2.2,1.1c-0.3-0.1-0.5-0.3-0.5-0.5c-0.1-0.2-0.3-0.3-0.6-0.2h-0.3c0.6-1.5,1.4-3.1,2.3-4.7c1-1.6,2-3.3,3.1-4.9
		c1.5-2.2,2.9-4.1,4-5.6s2.2-3,3.4-4.4c0.3,0.4,0.7,0.7,1.3,1c0.6,0.3,1.1,0.7,1.6,1c0.5,0.4,1,0.7,1.4,1.2c0.4,0.4,0.6,0.9,0.7,1.5
		C316.6,246.6,316.5,247.2,316.2,247.7z M321.7,262.3c-0.2,0-0.4,0.1-0.4,0.1c0.1-0.1,0.1-0.1,0.1-0.2c0.1-0.2,0.3-0.3,0.4-0.5
		C321.8,262,321.7,262.2,321.7,262.3z"/>
	<path class="st0" d="M164.5,289.7C164.5,289.7,164.4,289.7,164.5,289.7L164.5,289.7z"/>
</g>
</svg>
